<svg width="18" height="14" viewBox="0 0 18 14" fill="none" xmlns="http://www.w3.org/2000/svg">
<path d="M15.6667 0.333374H2.33341C1.41675 0.333374 0.675081 1.08337 0.675081 2.00004L0.666748 12C0.666748 12.9167 1.41675 13.6667 2.33341 13.6667H15.6667C16.5834 13.6667 17.3334 12.9167 17.3334 12V2.00004C17.3334 1.08337 16.5834 0.333374 15.6667 0.333374ZM15.3334 3.87504L9.44175 7.55837C9.17508 7.72504 8.82508 7.72504 8.55842 7.55837L2.66675 3.87504C2.58319 3.82813 2.51001 3.76476 2.45166 3.68875C2.3933 3.61275 2.35097 3.52569 2.32723 3.43285C2.30349 3.34001 2.29883 3.24332 2.31355 3.14863C2.32826 3.05394 2.36203 2.96322 2.41282 2.88196C2.4636 2.8007 2.53035 2.73059 2.60902 2.67587C2.68769 2.62115 2.77664 2.58297 2.87049 2.56362C2.96435 2.54428 3.06115 2.54418 3.15504 2.56333C3.24894 2.58248 3.33797 2.62048 3.41675 2.67504L9.00008 6.16671L14.5834 2.67504C14.6622 2.62048 14.7512 2.58248 14.8451 2.56333C14.939 2.54418 15.0358 2.54428 15.1297 2.56362C15.2235 2.58297 15.3125 2.62115 15.3911 2.67587C15.4698 2.73059 15.5366 2.8007 15.5873 2.88196C15.6381 2.96322 15.6719 3.05394 15.6866 3.14863C15.7013 3.24332 15.6967 3.34001 15.6729 3.43285C15.6492 3.52569 15.6069 3.61275 15.5485 3.68875C15.4902 3.76476 15.417 3.82813 15.3334 3.87504Z" fill="#BDBDBD"/>
</svg>
