<svg  xmlns="http://www.w3.org/2000/svg">
  <symbol id="star" viewBox="0 0 8 8">
    <g>
      <path fill-rule="evenodd" clip-rule="evenodd" d="M4.00005 0.333313C4.12692 0.333313 4.2428 0.405337 4.29895 0.519105L5.25147 2.4488L7.38159 2.76015C7.50711 2.7785 7.61134 2.8665 7.65047 2.98717C7.68959 3.10784 7.65683 3.24026 7.56596 3.32877L6.02489 4.82977L6.38859 6.9503C6.41004 7.07536 6.35862 7.20176 6.25596 7.27633C6.1533 7.35091 6.0172 7.36073 5.9049 7.30167L4.00005 6.29993L2.0952 7.30167C1.9829 7.36073 1.8468 7.35091 1.74414 7.27633C1.64148 7.20176 1.59006 7.07536 1.61151 6.9503L1.97521 4.82977L0.434139 3.32877C0.343267 3.24026 0.310509 3.10784 0.349635 2.98717C0.388761 2.8665 0.492988 2.7785 0.618508 2.76015L2.74863 2.4488L3.70115 0.519105C3.7573 0.405337 3.87318 0.333313 4.00005 0.333313ZM4.00005 1.41973L3.26895 2.90085C3.22044 2.99914 3.12671 3.06729 3.01826 3.08314L1.38285 3.32218L2.56596 4.47453C2.64459 4.55111 2.68047 4.66148 2.66192 4.76966L2.38278 6.3972L3.8449 5.62829C3.94203 5.57721 4.05807 5.57721 4.1552 5.62829L5.61732 6.3972L5.33818 4.76966C5.31963 4.66148 5.35552 4.55111 5.43414 4.47453L6.61725 3.32218L4.98184 3.08314C4.87339 3.06729 4.77966 2.99914 4.73115 2.90085L4.00005 1.41973Z" fill="#F2994A"/>
      <path d="M2.33333 5L1 3L3 2.66667L4 1L5 2.66667L7 3.33333L5.66667 4.66667L6 7L4 6L2 7L2.33333 5Z" fill="#F2994A"/>
    </g>
  </symbol>
</svg>

